<svg xmlns="http://www.w3.org/2000/svg" viewBox="0 0 100 100" width="100" height="100">
  <!-- 背景圆形 -->
  <circle cx="50" cy="50" r="48" fill="url(#gradient)" stroke="#ffffff" stroke-width="2"/>
  
  <!-- 渐变定义 -->
  <defs>
    <linearGradient id="gradient" x1="0%" y1="0%" x2="100%" y2="100%">
      <stop offset="0%" style="stop-color:#667eea;stop-opacity:1" />
      <stop offset="100%" style="stop-color:#764ba2;stop-opacity:1" />
    </linearGradient>
  </defs>
  
  <!-- 时钟外圈 -->
  <circle cx="50" cy="50" r="35" fill="none" stroke="#ffffff" stroke-width="2"/>
  
  <!-- 时钟刻度 -->
  <g stroke="#ffffff" stroke-width="2">
    <!-- 12点 -->
    <line x1="50" y1="18" x2="50" y2="25" stroke-width="3"/>
    <!-- 3点 -->
    <line x1="82" y1="50" x2="75" y2="50" stroke-width="3"/>
    <!-- 6点 -->
    <line x1="50" y1="82" x2="50" y2="75" stroke-width="3"/>
    <!-- 9点 -->
    <line x1="18" y1="50" x2="25" y2="50" stroke-width="3"/>
    
    <!-- 其他刻度 -->
    <line x1="71.5" y1="28.5" x2="68.5" y2="31.5"/>
    <line x1="71.5" y1="71.5" x2="68.5" y2="68.5"/>
    <line x1="28.5" y1="28.5" x2="31.5" y2="31.5"/>
    <line x1="28.5" y1="71.5" x2="31.5" y2="68.5"/>
  </g>
  
  <!-- 时钟指针 -->
  <g stroke="#ffffff" stroke-linecap="round">
    <!-- 时针 -->
    <line x1="50" y1="50" x2="50" y2="35" stroke-width="4"/>
    <!-- 分针 -->
    <line x1="50" y1="50" x2="62" y2="38" stroke-width="3"/>
  </g>
  
  <!-- 中心圆点 -->
  <circle cx="50" cy="50" r="3" fill="#ffffff"/>
  
  <!-- 装饰性星形 -->
  <g fill="#ffffff" opacity="0.8">
    <polygon points="50,8 52,14 58,14 53,18 55,24 50,20 45,24 47,18 42,14 48,14" transform="scale(0.6) translate(33,33)"/>
    <polygon points="50,8 52,14 58,14 53,18 55,24 50,20 45,24 47,18 42,14 48,14" transform="scale(0.4) translate(75,75)"/>
  </g>
</svg> 